<?xml version="1.0" encoding="utf-8"?>
<!-- Generator: Adobe Illustrator 15.0.0, SVG Export Plug-In  -->
<!DOCTYPE svg PUBLIC "-//W3C//DTD SVG 1.1//EN" "http://www.w3.org/Graphics/SVG/1.1/DTD/svg11.dtd" [
	<!ENTITY ns_flows "http://ns.adobe.com/Flows/1.0/">
]>
<svg version="1.1"
	 xmlns="http://www.w3.org/2000/svg" xmlns:xlink="http://www.w3.org/1999/xlink" xmlns:a="http://ns.adobe.com/AdobeSVGViewerExtensions/3.0/"
	 x="0px" y="0px" width="84px" height="89px" viewBox="-1.15 -0.638 84 89" enable-background="new -1.15 -0.638 84 89"
	 xml:space="preserve">
<defs>
</defs>
<path fill="#EC407A" d="M3.854,88.64H0V0h3.854V88.64z M11.562,88.64H7.708V0h3.854V88.64z M19.27,88.64h-3.854V0h3.854V88.64z
	 M26.978,88.64h-3.854V0h3.854V88.64z M29.226,44.32L51.921,0h4.282L33.508,44.32l22.695,44.32h-4.282L29.226,44.32z M37.897,44.32
	L60.539,0h4.282L42.179,44.32l22.642,44.32h-4.282L37.897,44.32z M46.515,44.32L69.156,0h4.282L50.797,44.32l22.642,44.32h-4.282
	L46.515,44.32z M55.132,44.32L77.774,0h4.282L59.415,44.32l22.642,44.32h-4.282L55.132,44.32z"/>
</svg>
